<svg width="36" height="35" viewBox="0 0 36 35" fill="none" xmlns="http://www.w3.org/2000/svg">
<g clip-path="url(#clip0_1_354)">
<path d="M36 17.5C36 7.83398 27.9422 0 18 0C8.05781 0 0 7.83398 0 17.5C0 26.2363 6.58125 33.4756 15.1875 34.7881V22.5586H10.6172V17.5H15.1875V13.6445C15.1875 9.25928 17.8734 6.83594 21.9867 6.83594C23.9555 6.83594 26.0156 7.17773 26.0156 7.17773V11.4844H23.7445C21.5086 11.4844 20.8125 12.8345 20.8125 14.2188V17.5H25.8047L25.0066 22.5586H20.8125V34.7881C29.4188 33.4756 36 26.2363 36 17.5Z" fill="#1877F2"/>
<path d="M25.0066 22.5586L25.8047 17.5H20.8125V14.2188C20.8125 12.8345 21.5086 11.4844 23.7445 11.4844H26.0156V7.17773C26.0156 7.17773 23.9555 6.83594 21.9867 6.83594C17.8734 6.83594 15.1875 9.25928 15.1875 13.6445V17.5H10.6172V22.5586H15.1875V34.7881C16.1051 34.9282 17.0437 35 18 35C18.9563 35 19.8949 34.9282 20.8125 34.7881V22.5586H25.0066Z" fill="white"/>
</g>
<defs>
<clipPath id="clip0_1_354">
<rect width="36" height="35" fill="white"/>
</clipPath>
</defs>
</svg>
