<svg width="37" height="35" viewBox="0 0 37 35" fill="none" xmlns="http://www.w3.org/2000/svg">
<path d="M0 17.5C0 7.83502 8.28273 0 18.5 0C28.7173 0 37 7.83502 37 17.5C37 27.165 28.7173 35 18.5 35C8.28273 35 0 27.165 0 17.5Z" fill="white"/>
<mask id="mask0_1_351" style="mask-type:luminance" maskUnits="userSpaceOnUse" x="0" y="0" width="37" height="35">
<path fill-rule="evenodd" clip-rule="evenodd" d="M0 17.5C0 7.83502 8.28273 0 18.5 0C28.7173 0 37 7.83502 37 17.5C37 27.165 28.7173 35 18.5 35C8.28273 35 0 27.165 0 17.5Z" fill="white"/>
</mask>
<g mask="url(#mask0_1_351)">
<path fill-rule="evenodd" clip-rule="evenodd" d="M18.5009 8.1665C15.8212 8.1665 15.4849 8.17759 14.4325 8.22289C13.3821 8.26839 12.6651 8.4257 12.0377 8.65651C11.3888 8.8949 10.8383 9.21379 10.2899 9.73277C9.74105 10.2516 9.40394 10.7723 9.1511 11.386C8.90649 11.9796 8.73999 12.658 8.69271 13.6513C8.64563 14.6468 8.6333 14.9651 8.6333 17.4999C8.6333 20.0347 8.64522 20.3519 8.69291 21.3474C8.74122 22.3411 8.90751 23.0193 9.15131 23.6127C9.40353 24.2266 9.74064 24.7473 10.2893 25.2661C10.8375 25.7853 11.388 26.105 12.0365 26.3434C12.6643 26.5742 13.3815 26.7315 14.4317 26.777C15.4841 26.8223 15.8202 26.8334 18.4997 26.8334C21.1795 26.8334 21.5148 26.8223 22.5672 26.777C23.6176 26.7315 24.3354 26.5742 24.9632 26.3434C25.612 26.105 26.1616 25.7853 26.7098 25.2661C27.2587 24.7473 27.5958 24.2266 27.8486 23.6129C28.0912 23.0193 28.2577 22.3409 28.307 21.3476C28.3543 20.3521 28.3666 20.0347 28.3666 17.4999C28.3666 14.9651 28.3543 14.647 28.307 13.6515C28.2577 12.6578 28.0912 11.9796 27.8486 11.3861C27.5958 10.7723 27.2587 10.2516 26.7098 9.73277C26.161 9.2136 25.6122 8.89471 24.9626 8.65651C24.3336 8.4257 23.6162 8.26839 22.5658 8.22289C21.5133 8.17759 21.1783 8.1665 18.4978 8.1665H18.5009ZM18.172 9.84837H18.172L18.5009 9.84847C21.1353 9.84847 21.4476 9.85741 22.4879 9.90213C23.4499 9.94374 23.972 10.0958 24.3198 10.2236C24.7803 10.3927 25.1085 10.5949 25.4537 10.9216C25.799 11.2483 26.0128 11.5594 26.192 11.995C26.3271 12.3236 26.488 12.8175 26.5318 13.7275C26.5791 14.7114 26.5894 15.0069 26.5894 17.4978C26.5894 19.9887 26.5791 20.2842 26.5318 21.2681C26.4878 22.1781 26.3271 22.672 26.192 23.0006C26.0132 23.4362 25.799 23.7463 25.4537 24.0728C25.1083 24.3995 24.7805 24.6017 24.3198 24.7709C23.9724 24.8992 23.4499 25.0509 22.4879 25.0925C21.4478 25.1372 21.1353 25.1469 18.5009 25.1469C15.8663 25.1469 15.554 25.1372 14.5139 25.0925C13.5519 25.0505 13.0298 24.8984 12.6818 24.7707C12.2213 24.6015 11.8924 24.3993 11.5471 24.0726C11.2017 23.7459 10.988 23.4356 10.8087 22.9999C10.6737 22.6712 10.5127 22.1773 10.4689 21.2673C10.4217 20.2834 10.4122 19.9879 10.4122 17.4955C10.4122 15.003 10.4217 14.709 10.4689 13.7251C10.5129 12.8151 10.6737 12.3212 10.8087 11.9922C10.9876 11.5567 11.2017 11.2456 11.5471 10.9189C11.8924 10.5922 12.2213 10.39 12.6818 10.2204C13.0296 10.0921 13.5519 9.94044 14.5139 9.89863C15.4241 9.85974 15.7768 9.84808 17.6158 9.84613V9.84847C17.7876 9.84821 17.9725 9.84829 18.172 9.84837H18.172H18.172ZM22.5837 12.5178C22.5837 11.8993 23.114 11.3982 23.7677 11.3982V11.3978C24.4214 11.3978 24.9517 11.8995 24.9517 12.5178C24.9517 13.1362 24.4214 13.6378 23.7677 13.6378C23.114 13.6378 22.5837 13.1362 22.5837 12.5178ZM18.5007 12.7068C15.7025 12.7069 13.4339 14.853 13.4339 17.4999C13.4339 20.1469 15.7026 22.2921 18.5009 22.2921C21.2992 22.2921 23.5671 20.1469 23.5671 17.4999C23.5671 14.8529 21.2989 12.7068 18.5007 12.7068ZM21.7898 17.4999C21.7898 15.7816 20.3172 14.3888 18.5009 14.3888C16.6844 14.3888 15.212 15.7816 15.212 17.4999C15.212 19.2181 16.6844 20.6111 18.5009 20.6111C20.3172 20.6111 21.7898 19.2181 21.7898 17.4999Z" fill="black"/>
</g>
</svg>
