<svg width="34" height="35" viewBox="0 0 34 35" fill="none" xmlns="http://www.w3.org/2000/svg">
<path d="M0 17.5C0 7.83502 7.61116 0 17 0C26.3888 0 34 7.83502 34 17.5C34 27.165 26.3888 35 17 35C7.61116 35 0 27.165 0 17.5Z" fill="#0077B5"/>
<path fill-rule="evenodd" clip-rule="evenodd" d="M12.2675 10.8082C12.2675 11.9524 11.4309 12.8679 10.0875 12.8679H10.0629C8.76951 12.8679 7.93335 11.9524 7.93335 10.8082C7.93335 9.63988 8.79497 8.75 10.1129 8.75C11.4309 8.75 12.2425 9.63988 12.2675 10.8082ZM12.0137 14.4943V26.4101H8.16116V14.4943H12.0137ZM25.9074 26.4101L25.9076 19.5779C25.9076 15.9179 24.007 14.2145 21.4718 14.2145C19.4264 14.2145 18.5106 15.371 17.9992 16.1824V14.4946H14.1462C14.197 15.6127 14.1462 26.4104 14.1462 26.4104H17.9992V19.7556C17.9992 19.3995 18.0243 19.0442 18.1261 18.7893C18.4046 18.0778 19.0385 17.3412 20.1029 17.3412C21.4975 17.3412 22.055 18.4339 22.055 20.0351V26.4101H25.9074Z" fill="white"/>
</svg>
