<svg width="44" height="43" viewBox="0 0 44 43" fill="none" xmlns="http://www.w3.org/2000/svg">
<path d="M7.33333 10.7502L18.5307 19.0138L18.5344 19.0168C19.7777 19.9079 20.3998 20.3537 21.0811 20.5259C21.6833 20.6781 22.3163 20.6781 22.9185 20.5259C23.6004 20.3535 24.2242 19.9064 25.4697 19.0138C25.4697 19.0138 32.6518 13.6275 36.6667 10.7502M5.5 28.3088V14.6922C5.5 12.6853 5.5 11.6811 5.89964 10.9146C6.25118 10.2404 6.8117 9.6926 7.50163 9.34906C8.28597 8.9585 9.3135 8.9585 11.367 8.9585H32.6337C34.6872 8.9585 35.7125 8.9585 36.4969 9.34906C37.1868 9.6926 37.7492 10.2404 38.1007 10.9146C38.5 11.6804 38.5 12.6834 38.5 14.6863V28.3149C38.5 30.3178 38.5 31.3194 38.1007 32.0851C37.7492 32.7594 37.1868 33.3081 36.4969 33.6517C35.7133 34.0418 34.6885 34.0418 32.639 34.0418H11.361C9.31149 34.0418 8.2852 34.0418 7.50163 33.6517C6.8117 33.3081 6.25118 32.7594 5.89964 32.0851C5.5 31.3186 5.5 30.3157 5.5 28.3088Z" stroke="#CB0B22" stroke-width="3" stroke-linecap="round" stroke-linejoin="round"/>
</svg>
