<svg width="44" height="43" viewBox="0 0 44 43" fill="none" xmlns="http://www.w3.org/2000/svg">
<path d="M9.16669 17.7784C9.16669 26.4713 16.9482 33.6599 20.3925 36.416C20.8855 36.8104 21.1349 37.01 21.5026 37.1112C21.789 37.19 22.2105 37.19 22.4968 37.1112C22.8653 37.0098 23.113 36.8122 23.6078 36.4163C27.0521 33.6602 34.8332 26.4721 34.8332 17.7792C34.8332 14.4895 33.4812 11.3342 31.0745 9.008C28.6678 6.68183 25.4038 5.375 22.0002 5.375C18.5966 5.375 15.3322 6.68203 12.9255 9.0082C10.5188 11.3344 9.16669 14.4887 9.16669 17.7784Z" stroke="#CB0B22" stroke-width="3" stroke-linecap="round" stroke-linejoin="round"/>
<path d="M18.3334 16.125C18.3334 18.104 19.975 19.7083 22 19.7083C24.0251 19.7083 25.6667 18.104 25.6667 16.125C25.6667 14.146 24.0251 12.5417 22 12.5417C19.975 12.5417 18.3334 14.146 18.3334 16.125Z" stroke="#CB0B22" stroke-width="3" stroke-linecap="round" stroke-linejoin="round"/>
</svg>
