<svg width="44" height="45" viewBox="0 0 44 45" fill="none" xmlns="http://www.w3.org/2000/svg">
<path d="M17.4212 7.98229C16.8643 6.55857 15.5161 5.625 14.0168 5.625H8.97368C7.05522 5.625 5.5 7.21518 5.5 9.17725C5.5 25.8548 18.7198 39.375 35.0267 39.375C36.9452 39.375 38.5 37.7843 38.5 35.8222L38.5009 30.6637C38.5009 29.1303 37.5883 27.7516 36.1962 27.1821L31.3627 25.2055C30.1122 24.694 28.6885 24.9242 27.6539 25.806L26.4064 26.87C24.9496 28.1117 22.806 28.0129 21.465 26.6415L17.9524 23.0457C16.6114 21.6743 16.5123 19.4838 17.7264 17.9938L18.7666 16.7181C19.6288 15.6599 19.8559 14.2034 19.3557 12.9245L17.4212 7.98229Z" stroke="#CB0B22" stroke-width="3" stroke-linecap="round" stroke-linejoin="round"/>
</svg>
