<svg width="36" height="35" viewBox="0 0 36 35" fill="none" xmlns="http://www.w3.org/2000/svg">
<path d="M0 17.5C0 7.83502 8.05887 0 18 0C27.9411 0 36 7.83502 36 17.5C36 27.165 27.9411 35 18 35C8.05887 35 0 27.165 0 17.5Z" fill="#55ACEE"/>
<path d="M17.4609 14.2242L17.4987 14.8298L16.8691 14.7556C14.5776 14.4714 12.5757 13.5075 10.876 11.8886L10.045 11.0853L9.83098 11.6785C9.37772 13.0008 9.6673 14.3972 10.6116 15.3364C11.1152 15.8555 11.0019 15.9296 10.1332 15.6207C9.83098 15.5218 9.56658 15.4477 9.5414 15.4847C9.45326 15.5712 9.75544 16.6958 9.99466 17.1407C10.322 17.7586 10.9893 18.3641 11.7196 18.7225L12.3365 19.0067L11.6063 19.0191C10.9012 19.0191 10.876 19.0315 10.9515 19.291C11.2034 20.0942 12.198 20.9469 13.306 21.3177L14.0866 21.5772L13.4067 21.9727C12.3995 22.5411 11.216 22.8624 10.0324 22.8871C9.46585 22.8995 9 22.9489 9 22.986C9 23.1096 10.5361 23.8016 11.43 24.0735C14.1118 24.8768 17.2972 24.5307 19.6894 23.159C21.3892 22.1827 23.0889 20.2425 23.8821 18.3641C24.3102 17.3631 24.7383 15.5342 24.7383 14.6567C24.7383 14.0883 24.7761 14.0141 25.4811 13.3344C25.8966 12.939 26.2869 12.5065 26.3625 12.3829C26.4884 12.1481 26.4758 12.1481 25.8337 12.3582C24.7635 12.7289 24.6124 12.6795 25.1412 12.1234C25.5315 11.7279 25.9973 11.0112 25.9973 10.8011C25.9973 10.764 25.8085 10.8258 25.5944 10.937C25.3678 11.0606 24.8642 11.246 24.4865 11.3572L23.8066 11.5673L23.1896 11.1594C22.8497 10.937 22.3712 10.6898 22.1194 10.6157C21.4773 10.4427 20.4952 10.4674 19.9161 10.6651C18.3422 11.2212 17.3476 12.6548 17.4609 14.2242Z" fill="white"/>
</svg>
