<svg width="36" height="35" viewBox="0 0 36 35" fill="none" xmlns="http://www.w3.org/2000/svg">
<path d="M0 17.5C0 7.83502 8.05887 0 18 0C27.9411 0 36 7.83502 36 17.5C36 27.165 27.9411 35 18 35C8.05887 35 0 27.165 0 17.5Z" fill="#FF0000"/>
<path d="M27.1988 13.1786C26.978 12.3539 26.3274 11.7044 25.5012 11.484C24.0041 11.0835 18 11.0835 18 11.0835C18 11.0835 11.996 11.0835 10.4987 11.484C9.67257 11.7044 9.02195 12.3539 8.80115 13.1786C8.40002 14.6732 8.40002 17.7918 8.40002 17.7918C8.40002 17.7918 8.40002 20.9103 8.80115 22.4051C9.02195 23.2298 9.67257 23.8792 10.4987 24.0997C11.996 24.5002 18 24.5002 18 24.5002C18 24.5002 24.0041 24.5002 25.5012 24.0997C26.3274 23.8792 26.978 23.2298 27.1988 22.4051C27.6 20.9103 27.6 17.7918 27.6 17.7918C27.6 17.7918 27.6 14.6732 27.1988 13.1786" fill="white"/>
<path d="M16.2 20.9998V15.1665L21 18.0833L16.2 20.9998Z" fill="#FF0000"/>
</svg>
