<svg width="22" height="13" viewBox="0 0 22 13" fill="none" xmlns="http://www.w3.org/2000/svg">
<path d="M14.6667 6.5C14.6667 7.21421 14.4516 7.91238 14.0487 8.50623C13.6458 9.10007 13.0732 9.56292 12.4032 9.83623C11.7332 10.1095 10.9959 10.1811 10.2847 10.0417C9.57341 9.90239 8.92007 9.55846 8.40728 9.05344C7.89448 8.54842 7.54527 7.90498 7.40379 7.20449C7.26231 6.50401 7.33492 5.77793 7.61244 5.11809C7.88996 4.45824 8.35993 3.89426 8.96291 3.49747C9.56589 3.10068 10.2748 2.88889 11 2.88889C11.9725 2.88889 12.9051 3.26934 13.5927 3.94656C14.2804 4.62377 14.6667 5.54227 14.6667 6.5ZM22 0.722222V12.2778C22 12.4693 21.9227 12.653 21.7852 12.7885C21.6477 12.9239 21.4612 13 21.2667 13H0.733333C0.538841 13 0.352315 12.9239 0.214788 12.7885C0.0772617 12.653 0 12.4693 0 12.2778V0.722222C0 0.530677 0.0772617 0.346977 0.214788 0.211534C0.352315 0.0760912 0.538841 0 0.733333 0H21.2667C21.4612 0 21.6477 0.0760912 21.7852 0.211534C21.9227 0.346977 22 0.530677 22 0.722222ZM20.5333 4.9066C19.7006 4.66412 18.9428 4.22031 18.3288 3.61561C17.7148 3.01091 17.2641 2.26452 17.0179 1.44444H4.98208C4.73587 2.26452 4.28524 3.01091 3.67124 3.61561C3.05723 4.22031 2.29936 4.66412 1.46667 4.9066V8.0934C2.29936 8.33588 3.05723 8.77969 3.67124 9.38439C4.28524 9.98909 4.73587 10.7355 4.98208 11.5556H17.0179C17.2641 10.7355 17.7148 9.98909 18.3288 9.38439C18.9428 8.77969 19.7006 8.33588 20.5333 8.0934V4.9066Z" fill="#AD2F3B"/>
</svg>
