<svg width="18" height="18" viewBox="0 0 18 18" fill="none" xmlns="http://www.w3.org/2000/svg">
<path d="M16.1432 6.67376C14.9101 7.39782 13.4562 6.62648 12.4351 5.62544L12.1474 5.34331C11.1462 4.36181 10.3708 2.93627 11.1019 1.73993C11.4846 1.1136 12.0543 0.616883 12.7344 0.316586C13.4144 0.0162898 14.1722 -0.0731831 14.9059 0.0602014C15.6395 0.193586 16.3138 0.54343 16.838 1.06268C17.3673 1.57654 17.7236 2.23618 17.8591 2.95337C17.9946 3.67056 17.9029 4.41111 17.5962 5.07596C17.2896 5.74081 16.7826 6.29826 16.1432 6.67376ZM1.29885 13.7124C1.29598 13.7124 1.29457 13.7089 1.29662 13.7069L8.44781 6.72239C9.15209 6.03452 10.2767 6.03483 10.9807 6.72308C11.7076 7.43385 11.7076 8.6035 10.9807 9.31427L5.70995 14.4677C4.69493 15.4602 3.07221 15.4573 2.0607 14.4613L1.30109 13.7133C1.30049 13.7127 1.29969 13.7124 1.29885 13.7124ZM0.00784759 16.2459C0.00868617 16.2459 0.00949123 16.2456 0.0100894 16.245L1.30633 14.9716C1.65894 14.6252 2.22388 14.6245 2.57731 14.9701C2.94155 15.3262 2.94155 15.9123 2.57731 16.2684L1.67069 17.1549C1.46471 17.3562 1.1356 17.3562 0.929633 17.1549L0.00561114 16.2514C0.00356092 16.2494 0.00498021 16.2459 0.00784759 16.2459ZM8.75318 13.8291C8.75318 13.5827 8.8525 13.3467 9.02868 13.1744C9.60839 12.6076 10.5844 13.0184 10.5844 13.8291V17.0044C10.5844 17.5101 10.1745 17.92 9.66879 17.92C9.16311 17.92 8.75318 17.5101 8.75318 17.0044V13.8291Z" fill="#AD2F3B"/>
</svg>
