<svg width="38" height="38" viewBox="0 0 38 38" fill="none" xmlns="http://www.w3.org/2000/svg">
<path d="M22.0453 3.96466C22.6661 3.96461 23.276 4.12675 23.8148 4.43502C24.3536 4.74329 24.8025 5.18699 25.117 5.72216L26.4058 7.91824H29.6849C31.0494 7.91824 32.358 8.46017 33.323 9.42486C34.288 10.3895 34.8303 11.698 34.8307 13.0625V28.1042C34.8307 28.7799 34.6976 29.4491 34.439 30.0734C34.1804 30.6977 33.8014 31.265 33.3236 31.7428C32.8457 32.2206 32.2784 32.5997 31.6541 32.8583C31.0298 33.1169 30.3607 33.25 29.6849 33.25H8.3099C6.94514 33.25 5.63627 32.7078 4.67124 31.7428C3.70621 30.7778 3.16406 29.4689 3.16406 28.1042V13.0625C3.16406 11.6977 3.70621 10.3889 4.67124 9.42384C5.63627 8.45881 6.94514 7.91666 8.3099 7.91666H11.6032L12.9886 5.66199C13.3072 5.143 13.7535 4.71434 14.2848 4.41691C14.8162 4.11949 15.4149 3.96323 16.0239 3.96307H22.0453V3.96466ZM22.0453 6.33966H16.0239C15.8506 6.3398 15.6795 6.37786 15.5225 6.45116C15.3655 6.52446 15.2264 6.63124 15.1151 6.76399L15.0121 6.90649L13.2816 9.72482C13.1754 9.89792 13.0267 10.0409 12.8496 10.1401C12.6725 10.2394 12.4728 10.2915 12.2698 10.2917H8.31148C7.94748 10.2914 7.587 10.363 7.25064 10.5021C6.91429 10.6413 6.60864 10.8453 6.35118 11.1027C6.09372 11.36 5.88948 11.6655 5.75013 12.0018C5.61079 12.338 5.53906 12.6985 5.53906 13.0625V28.1042C5.53906 29.6337 6.7804 30.875 8.3099 30.875H29.6849C30.4198 30.875 31.1245 30.5831 31.6442 30.0634C32.1638 29.5438 32.4557 28.839 32.4557 28.1042V13.0625C32.4557 12.3276 32.1638 11.6228 31.6442 11.1032C31.1245 10.5836 30.4198 10.2917 29.6849 10.2917H25.7266C25.5196 10.2918 25.3161 10.2378 25.1364 10.135C24.9567 10.0322 24.807 9.88429 24.7021 9.70582L23.0681 6.92391C22.9634 6.74567 22.8139 6.59787 22.6346 6.49512C22.4552 6.39238 22.252 6.33824 22.0453 6.33807V6.33966ZM18.9974 12.6667C20.8871 12.6667 22.6993 13.4173 24.0355 14.7535C25.3717 16.0897 26.1224 17.902 26.1224 19.7917C26.1224 21.6813 25.3717 23.4936 24.0355 24.8298C22.6993 26.166 20.8871 26.9167 18.9974 26.9167C17.1077 26.9167 15.2955 26.166 13.9593 24.8298C12.6231 23.4936 11.8724 21.6813 11.8724 19.7917C11.8724 17.902 12.6231 16.0897 13.9593 14.7535C15.2955 13.4173 17.1077 12.6667 18.9974 12.6667ZM18.9974 15.0417C18.3736 15.0417 17.7559 15.1645 17.1797 15.4032C16.6034 15.6419 16.0797 15.9918 15.6386 16.4329C15.1976 16.874 14.8477 17.3976 14.609 17.9739C14.3703 18.5502 14.2474 19.1679 14.2474 19.7917C14.2474 20.4154 14.3703 21.0331 14.609 21.6094C14.8477 22.1857 15.1976 22.7093 15.6386 23.1504C16.0797 23.5915 16.6034 23.9414 17.1797 24.1801C17.7559 24.4188 18.3736 24.5417 18.9974 24.5417C20.2572 24.5417 21.4654 24.0412 22.3562 23.1504C23.247 22.2596 23.7474 21.0514 23.7474 19.7917C23.7474 18.5319 23.247 17.3237 22.3562 16.4329C21.4654 15.5421 20.2572 15.0417 18.9974 15.0417Z" fill="#333333"/>
</svg>
