<svg width="42" height="42" viewBox="0 0 42 42" fill="none" xmlns="http://www.w3.org/2000/svg">
<path d="M31.9596 8.06368C28.0959 4.20001 21.8041 4.20001 17.9446 8.06368L7.23949 18.7606C7.16976 18.8303 7.13285 18.9246 7.13285 19.0231C7.13285 19.1215 7.16976 19.2158 7.23949 19.2856L8.75297 20.799C8.82215 20.8679 8.9158 20.9066 9.01342 20.9066C9.11104 20.9066 9.20469 20.8679 9.27387 20.799L19.9789 10.1022C21.3079 8.77325 23.0756 8.04317 24.9541 8.04317C26.8327 8.04317 28.6004 8.77325 29.9252 10.1022C31.2541 11.4311 31.9842 13.1988 31.9842 15.0732C31.9842 16.9518 31.2541 18.7154 29.9252 20.0443L19.0151 30.9504L17.2473 32.7182C15.5944 34.3711 12.9079 34.3711 11.2549 32.7182C10.4551 31.9184 10.0162 30.8561 10.0162 29.724C10.0162 28.592 10.4551 27.5297 11.2549 26.7299L22.0789 15.91C22.3537 15.6393 22.7147 15.4875 23.1002 15.4875H23.1043C23.4899 15.4875 23.8467 15.6393 24.1174 15.91C24.3922 16.1848 24.5399 16.5457 24.5399 16.9313C24.5399 17.3127 24.3881 17.6736 24.1174 17.9443L15.2704 26.7832C15.2006 26.8529 15.1637 26.9473 15.1637 27.0457C15.1637 27.1441 15.2006 27.2385 15.2704 27.3082L16.7838 28.8217C16.853 28.8906 16.9467 28.9292 17.0443 28.9292C17.1419 28.9292 17.2355 28.8906 17.3047 28.8217L26.1477 19.9787C26.9639 19.1625 27.411 18.0797 27.411 16.9272C27.411 15.7746 26.9598 14.6877 26.1477 13.8756C24.462 12.1898 21.7221 12.194 20.0364 13.8756L18.9864 14.9297L9.21644 24.6955C8.55335 25.3547 8.02772 26.139 7.67005 27.0029C7.31238 27.8668 7.12979 28.7931 7.13285 29.7281C7.13285 31.6272 7.87523 33.4113 9.21644 34.7525C10.6069 36.1389 12.428 36.832 14.2491 36.832C16.0702 36.832 17.8912 36.1389 19.2776 34.7525L31.9596 22.0787C33.8258 20.2084 34.8594 17.7188 34.8594 15.0732C34.8635 12.4236 33.8299 9.93399 31.9596 8.06368Z" fill="#333333"/>
</svg>
