<?xml version="1.0" standalone="no"?>
<!DOCTYPE svg PUBLIC "-//W3C//DTD SVG 20010904//EN"
 "http://www.w3.org/TR/2001/REC-SVG-20010904/DTD/svg10.dtd">
<svg version="1.0" xmlns="http://www.w3.org/2000/svg"
 width="210.000000pt" height="200.000000pt" viewBox="0 0 210.000000 200.000000"
 preserveAspectRatio="xMidYMid meet">

<g transform="translate(0.000000,200.000000) scale(0.100000,-0.100000)"
fill="#000000" stroke="none">
<path d="M0 1809 l0 -192 40 7 c34 5 46 2 85 -26 39 -28 49 -31 65 -20 27 17
34 15 69 -14 47 -39 40 -57 -11 -31 -53 26 -144 33 -203 17 l-45 -13 0 -153 0
-154 24 0 c14 0 40 -8 58 -19 20 -11 62 -21 108 -24 81 -7 105 -22 97 -64 -2
-12 -1 -20 3 -18 12 7 28 -17 31 -45 4 -43 -1 -94 -8 -87 -3 4 -15 -5 -26 -20
-14 -22 -17 -23 -13 -7 6 21 2 21 -120 28 -70 4 -133 10 -141 13 -11 4 -14 -3
-11 -33 l3 -39 115 -7 c63 -4 126 -9 139 -11 19 -4 26 2 37 29 18 42 22 43 16
3 -3 -20 -13 -34 -28 -41 -13 -6 -21 -15 -17 -20 3 -6 -46 -9 -131 -7 l-136 4
0 -432 0 -433 429 0 429 0 15 73 c9 39 18 97 20 128 7 72 46 170 73 184 12 6
29 16 37 23 8 7 21 10 30 6 12 -4 13 -11 5 -35 -6 -16 -8 -39 -4 -51 3 -12 -1
-29 -8 -38 -24 -27 -56 -90 -56 -111 0 -11 -5 -29 -11 -41 -6 -11 -12 -47 -14
-79 l-3 -59 579 0 579 0 0 36 0 36 -47 -5 -48 -5 48 11 c47 10 47 11 47 51 0
23 -4 36 -8 30 -11 -17 -102 -67 -109 -60 -3 3 -12 1 -20 -5 -25 -22 -14 20
12 43 13 11 22 25 19 30 -9 14 38 76 66 88 l25 11 -25 -21 c-17 -13 -20 -20
-10 -20 13 0 13 -1 0 -10 -8 -5 -11 -10 -6 -10 6 0 0 -9 -12 -20 -12 -12 -22
-28 -22 -38 1 -16 2 -16 14 1 7 9 17 17 22 17 5 1 19 9 31 19 23 19 23 22 21
258 0 131 -3 224 -5 207 -3 -26 -9 -33 -33 -36 -25 -4 -27 -2 -19 13 6 11 5
28 -2 45 -9 24 -7 30 13 46 19 15 20 18 6 18 -10 0 -18 -5 -18 -11 0 -6 -6 -9
-12 -7 -7 3 -16 27 -19 54 -3 27 -9 73 -14 102 l-8 52 34 1 34 1 -38 10 c-47
13 -52 24 -32 72 16 38 16 38 38 20 l21 -19 -17 27 c-14 23 -15 29 -3 41 8 7
23 32 35 54 11 23 25 45 31 48 7 4 10 142 10 416 l-1 409 -725 0 c-398 0 -724
-3 -724 -6 0 -3 12 -25 26 -49 30 -51 26 -85 -10 -85 -13 0 -31 9 -41 20 -10
11 -23 20 -29 20 -6 0 -5 -5 2 -12 14 -14 16 -32 4 -24 -5 3 -8 -18 -6 -47 3
-50 3 -50 -5 -10 -4 23 -14 49 -22 59 -12 15 -12 17 0 9 25 -15 -9 27 -55 68
-47 42 -54 44 -54 20 0 -15 -2 -15 -9 -4 -5 8 -7 20 -4 28 4 11 -36 13 -221
13 l-226 0 0 -191z m860 111 c11 -22 17 -40 12 -40 -14 0 -53 60 -47 70 10 16
13 13 35 -30z m-629 10 c22 -12 25 -36 5 -43 -15 -6 -30 19 -20 34 8 14 -1 11
-49 -14 -24 -13 -54 -26 -65 -29 -18 -5 -19 -3 -12 16 4 11 15 20 24 20 9 -1
14 2 11 6 -12 19 74 27 106 10z m49 -30 c0 -5 -2 -10 -4 -10 -3 0 -8 5 -11 10
-3 6 -1 10 4 10 6 0 11 -4 11 -10z m-2 -42 c18 -18 15 -25 -13 -32 l-25 -6 22
-25 c14 -16 24 -21 28 -14 5 7 9 5 13 -6 5 -12 1 -15 -16 -14 -12 1 -33 1 -46
1 -23 -2 -24 -3 -6 -22 17 -18 17 -20 1 -26 -10 -4 -22 -2 -29 5 -6 6 -19 11
-29 11 -10 0 -18 6 -18 13 0 7 -10 17 -22 22 -35 15 -30 48 9 56 17 3 47 16
65 27 38 25 49 27 66 10z m931 -37 c20 -13 3 -33 -21 -25 -11 3 -31 1 -44 -6
-25 -14 -59 -6 -49 11 16 24 87 37 114 20z m-19 -61 c11 -7 7 -10 -17 -10 -18
0 -33 5 -33 10 0 13 30 13 50 0z m839 -72 c-10 -29 -24 -53 -31 -53 -7 0 -16
-13 -19 -30 -5 -23 -7 -25 -8 -7 -2 36 -16 25 -17 -13 0 -19 3 -35 7 -35 12 0
3 -54 -10 -58 -14 -5 -14 -29 -1 -37 6 -4 17 9 25 27 12 28 14 30 15 10 0 -34
-18 -62 -35 -56 -10 4 -15 0 -15 -11 0 -10 5 -13 12 -9 7 4 8 3 4 -5 -9 -13
-26 -5 -26 12 0 7 -18 12 -46 13 -46 1 -46 1 -20 -13 27 -14 36 -29 12 -20
-10 4 -13 -6 -13 -41 1 -26 -8 -77 -18 -114 -17 -59 -18 -74 -7 -139 9 -50 9
-76 2 -83 -7 -7 -10 -6 -10 4 0 7 -3 10 -7 6 -8 -8 -9 -11 -12 -43 -2 -15 -4
-14 -13 5 -7 13 -19 21 -28 20 -23 -4 -24 -1 -16 66 5 33 9 109 11 171 1 69 7
120 16 136 7 13 14 29 15 35 9 53 177 288 217 304 35 14 35 13 16 -42z m-1891
-4 c-3 -61 -16 -69 -55 -34 -18 16 -28 32 -24 35 5 3 11 0 13 -6 7 -20 46 0
52 26 10 39 16 29 14 -21z m954 -18 c6 4 8 -1 6 -11 -6 -31 -28 -30 -27 2 0
15 3 22 6 15 2 -6 9 -9 15 -6z m-42 -22 c0 -8 -4 -12 -10 -9 -5 3 -10 10 -10
16 0 5 5 9 10 9 6 0 10 -7 10 -16z m-156 -23 c-7 -8 -35 9 -29 19 4 6 11 5 20
-3 7 -6 11 -14 9 -16z m149 -49 c-7 -44 -10 -49 -24 -35 -8 8 -7 21 2 46 16
45 30 38 22 -11z m-123 11 c0 -14 -2 -15 -9 -4 -7 11 -9 11 -14 0 -4 -10 -6
-9 -6 4 -1 9 6 17 14 17 8 0 15 -8 15 -17z m-20 -39 c0 -8 -5 -12 -10 -9 -6 4
-8 11 -5 16 9 14 15 11 15 -7z m17 -16 c-3 -7 -5 -2 -5 12 0 14 2 19 5 13 2
-7 2 -19 0 -25z m-668 -54 c10 -9 -35 -3 -49 6 -11 8 -7 9 15 4 17 -4 32 -8
34 -10z m1011 -277 c0 -10 -3 -17 -8 -15 -11 5 -102 104 -102 111 0 4 25 -12
55 -36 31 -24 55 -50 55 -60z m660 -101 c0 -3 -4 -8 -10 -11 -5 -3 -10 -1 -10
4 0 6 5 11 10 11 6 0 10 -2 10 -4z m-745 -132 c14 -15 33 -27 42 -28 10 0 29
-9 43 -19 14 -9 61 -41 105 -70 87 -58 113 -90 49 -61 -22 10 -51 18 -66 19
-16 1 -36 13 -48 28 -20 25 -22 25 -41 9 -12 -9 -25 -27 -30 -39 -5 -13 -13
-23 -18 -23 -5 0 0 17 10 38 27 51 22 77 -13 77 -19 -1 -27 4 -25 14 1 9 -6
17 -15 19 -11 2 -18 -3 -18 -12 0 -9 5 -16 11 -16 16 0 6 -23 -12 -26 -7 -1
-22 -5 -31 -9 -13 -5 -15 -2 -11 14 4 15 1 21 -11 21 -23 0 -20 23 4 38 12 7
18 17 15 22 -3 5 3 13 12 19 24 14 21 15 48 -15z m-435 -88 c0 -8 -10 -11 -30
-8 -32 5 -37 11 -18 30 13 13 48 -2 48 -22z m1085 -8 c-6 -17 -4 -20 9 -15 27
11 31 -21 6 -48 -27 -29 -43 -24 -30 10 7 20 6 25 -5 25 -19 0 -19 19 0 26 8
4 12 10 9 15 -3 5 0 9 6 9 7 0 9 -8 5 -22z m-455 -83 c0 -8 -4 -15 -10 -15 -5
0 -7 7 -4 15 4 8 8 15 10 15 2 0 4 -7 4 -15z m-528 -42 c-4 -16 -7 -35 -7 -43
1 -24 33 -78 52 -89 14 -8 9 -10 -25 -11 -38 0 -44 3 -56 30 -7 17 -16 27 -20
23 -11 -11 33 89 46 104 15 19 17 16 10 -14z m568 7 c0 -5 -2 -10 -4 -10 -3 0
-8 5 -11 10 -3 6 -1 10 4 10 6 0 11 -4 11 -10z m60 -46 c0 -11 -5 -11 -25 -2
-27 12 -32 24 -12 31 15 5 37 -11 37 -29z m612 -135 c-1 -13 -3 -54 -4 -91 0
-42 -5 -68 -12 -68 -6 0 -4 -4 4 -10 12 -7 12 -12 -4 -28 -13 -15 -14 -21 -4
-25 11 -3 11 -8 0 -26 -7 -12 -8 -21 -2 -21 22 0 8 -31 -17 -41 -16 -6 -36
-18 -45 -26 -10 -9 -18 -11 -18 -5 0 6 5 14 10 17 15 9 12 25 -5 25 -28 0 -19
76 14 118 42 56 74 139 68 179 -4 24 -2 33 6 30 7 -2 11 -15 9 -28z m-1152 1
c12 -8 11 -10 -7 -10 -13 0 -23 5 -23 10 0 13 11 13 30 0z m521 -25 c33 11
193 8 223 -4 21 -9 32 -9 42 0 11 9 14 8 14 -1 0 -9 10 -11 31 -6 27 5 30 3
25 -12 -6 -16 -5 -16 8 1 13 17 14 17 21 0 7 -17 8 -17 15 2 6 14 9 5 8 -30 0
-35 -2 -43 -7 -26 -4 14 -13 26 -21 29 -13 3 -13 2 -1 -6 10 -8 6 -11 -17 -17
-34 -7 -56 0 -47 16 4 5 2 9 -4 9 -5 0 -13 -4 -16 -10 -3 -5 -1 -10 6 -10 8 0
8 -4 -1 -15 -16 -19 -30 -3 -23 26 4 13 0 19 -11 19 -10 0 -14 -4 -11 -10 10
-17 -5 -33 -20 -20 -16 13 -60 -2 -73 -26 -9 -16 -10 -15 -16 4 -6 18 -14 21
-45 19 -21 -1 -45 -8 -54 -15 -13 -11 -15 -10 -10 7 3 12 1 21 -6 21 -6 0 -11
-4 -11 -8 0 -4 -15 -6 -34 -4 -18 2 -43 -1 -55 -7 -11 -7 -21 -8 -21 -3 0 5
-22 8 -49 8 -43 -1 -47 -3 -37 -19 8 -14 8 -20 -4 -27 -11 -7 -11 -10 -2 -10
7 0 11 -4 8 -8 -3 -5 -19 -7 -37 -4 -28 4 -31 7 -25 35 3 16 6 44 6 62 l0 32
39 -10 c30 -8 49 -7 80 3 33 10 43 11 56 0 13 -10 15 -9 15 7 0 28 10 34 27
17 9 -8 23 -12 34 -9z m-431 -24 c0 -5 -18 -12 -40 -16 -22 -4 -38 -11 -34
-16 7 -11 -7 -11 -25 0 -16 11 -3 21 43 32 44 10 56 10 56 0z m115 -71 c3 -5
-1 -10 -9 -10 -8 0 -18 5 -21 10 -3 6 1 10 9 10 8 0 18 -4 21 -10z m-280 -30
c28 -23 15 -31 -42 -28 -56 3 -69 13 -56 40 6 11 81 2 98 -12z m852 -47 c-3
-10 -5 -2 -5 17 0 19 2 27 5 18 2 -10 2 -26 0 -35z m-111 -38 c0 -25 -4 -45
-7 -45 -4 0 -10 -10 -14 -22 -6 -20 -8 -20 -12 -5 -6 24 -23 21 -24 -5 -1 -13
-3 -16 -5 -8 -6 20 19 102 29 98 5 -2 13 5 18 15 15 25 17 22 15 -28z m294 20
c0 -8 -4 -15 -10 -15 -5 0 -10 4 -10 9 0 5 -8 12 -17 14 -11 3 -7 5 10 6 18 1
27 -4 27 -14z m-1037 -2 c-7 -2 -19 -2 -25 0 -7 3 -2 5 12 5 14 0 19 -2 13 -5z
m844 -50 c-3 -10 -5 -2 -5 17 0 19 2 27 5 18 2 -10 2 -26 0 -35z m-507 27 c0
-5 -7 -7 -15 -4 -8 4 -15 8 -15 10 0 2 7 4 15 4 8 0 15 -4 15 -10z m206 -56
c-8 -16 -20 -42 -26 -58 -6 -16 -13 -27 -15 -24 -6 5 24 87 38 106 16 21 18 7
3 -24z m357 -26 l62 -2 -62 -3 c-59 -4 -63 -5 -63 -29 0 -22 3 -24 37 -20 34
3 35 2 18 -10 -10 -8 -27 -12 -37 -8 -13 4 -21 -1 -26 -17 l-9 -23 -5 22 c-4
12 -3 24 2 27 4 2 8 16 8 30 0 23 -4 25 -52 27 l-51 2 53 3 c40 3 52 8 53 21
1 15 2 15 6 0 4 -15 17 -18 66 -20z m93 -25 c-11 -11 -19 6 -11 24 8 17 8 17
12 0 3 -10 2 -21 -1 -24z m-1106 7 c0 -5 -3 -10 -7 -11 -5 0 -19 -2 -32 -5
-20 -4 -22 -2 -11 11 14 17 50 20 50 5z m-523 -46 c29 -19 51 -39 48 -44 -9
-14 -79 -22 -105 -11 l-25 10 25 1 c14 1 19 4 12 7 -6 2 -10 9 -7 13 3 5 0 12
-6 16 -8 4 -9 3 -5 -4 8 -13 -13 -16 -29 -4 -9 6 -10 17 -6 45 3 17 48 4 98
-29z m1306 0 c-3 -9 -9 -12 -12 -7 -3 4 -10 11 -15 16 -5 4 0 7 12 7 15 0 20
-4 15 -16z m314 -36 c-3 -8 -6 -5 -6 6 -1 11 2 17 5 13 3 -3 4 -12 1 -19z
m123 -89 c-12 -9 -11 -10 8 -6 25 6 30 -8 6 -17 -19 -7 -47 12 -38 25 3 5 13
9 22 9 15 0 15 -2 2 -11z"/>
<path d="M0 1131 l0 -70 33 -5 c17 -3 85 -9 150 -14 109 -7 118 -6 123 11 7
22 10 19 -45 47 -40 20 -43 20 -37 3 6 -14 5 -16 -5 -5 -15 14 -53 16 -44 2 3
-5 2 -10 -4 -10 -5 0 -15 8 -20 18 -6 9 -11 14 -11 9 0 -4 -21 8 -47 26 -96
67 -93 68 -93 -12z"/>
<path d="M2067 1089 c7 -7 15 -10 18 -7 3 3 -2 9 -12 12 -14 6 -15 5 -6 -5z"/>
<path d="M2087 745 c-4 -8 -2 -17 3 -20 6 -4 10 3 10 14 0 25 -6 27 -13 6z"/>
</g>
</svg>
