<svg width="19" height="21" viewBox="0 0 19 21" fill="none" xmlns="http://www.w3.org/2000/svg">
<path d="M18.0017 10.0023H16.0017C15.7365 10.0023 15.4822 10.1077 15.2946 10.2952C15.1071 10.4828 15.0017 10.7371 15.0017 11.0023C15.0017 11.2675 15.1071 11.5219 15.2946 11.7094C15.4822 11.897 15.7365 12.0023 16.0017 12.0023V14.0023H14.8157C14.9345 13.6821 14.9971 13.3438 15.0007 13.0023C15.0007 12.3419 14.7828 11.7 14.3808 11.1761C13.9787 10.6522 13.4151 10.2756 12.7772 10.1047C12.1393 9.93376 11.4629 9.97809 10.8528 10.2308C10.2426 10.4835 9.73295 10.9304 9.40274 11.5023C9.33604 11.6161 9.2925 11.7419 9.27464 11.8726C9.25677 12.0033 9.26493 12.1362 9.29864 12.2637C9.33235 12.3912 9.39094 12.5107 9.47105 12.6155C9.55116 12.7203 9.6512 12.8081 9.76541 12.8741C9.87962 12.94 10.0057 12.9827 10.1365 12.9997C10.2673 13.0167 10.4002 13.0077 10.5274 12.9731C10.6547 12.9386 10.7739 12.8792 10.8781 12.7984C10.9823 12.7176 11.0696 12.617 11.1347 12.5023C11.2225 12.3503 11.3487 12.2241 11.5008 12.1363C11.6528 12.0485 11.8252 12.0023 12.0007 12.0023C12.266 12.0023 12.5203 12.1077 12.7078 12.2952C12.8954 12.4828 13.0007 12.7371 13.0007 13.0023C13.0007 13.2675 12.8954 13.5219 12.7078 13.7094C12.5203 13.897 12.266 14.0023 12.0007 14.0023C11.7355 14.0023 11.4812 14.1077 11.2936 14.2952C11.1061 14.4828 11.0007 14.7371 11.0007 15.0023C11.0007 15.2675 11.1061 15.5219 11.2936 15.7094C11.4812 15.897 11.7355 16.0023 12.0007 16.0023C12.266 16.0023 12.5203 16.1077 12.7078 16.2952C12.8954 16.4828 13.0007 16.7371 13.0007 17.0023C13.0007 17.2675 12.8954 17.5219 12.7078 17.7094C12.5203 17.897 12.266 18.0023 12.0007 18.0023C11.8252 18.0023 11.6528 17.9561 11.5008 17.8683C11.3487 17.7806 11.2225 17.6543 11.1347 17.5023C11.0696 17.3877 10.9823 17.2871 10.8781 17.2063C10.7739 17.1255 10.6547 17.0661 10.5274 17.0315C10.4002 16.997 10.2673 16.9879 10.1365 17.0049C10.0057 17.0219 9.87962 17.0646 9.76541 17.1306C9.6512 17.1965 9.55116 17.2844 9.47105 17.3891C9.39094 17.4939 9.33235 17.6135 9.29864 17.741C9.26493 17.8685 9.25677 18.0014 9.27464 18.132C9.2925 18.2627 9.33604 18.3886 9.40274 18.5023C9.73295 19.0742 10.2426 19.5212 10.8528 19.7739C11.4629 20.0266 12.1393 20.0709 12.7772 19.9C13.4151 19.729 13.9787 19.3524 14.3808 18.8285C14.7828 18.3046 15.0007 17.6627 15.0007 17.0023C14.9971 16.6608 14.9345 16.3225 14.8157 16.0023H16.0007V19.0023C16.0007 19.2675 16.1061 19.5219 16.2936 19.7094C16.4812 19.897 16.7355 20.0023 17.0007 20.0023C17.266 20.0023 17.5203 19.897 17.7078 19.7094C17.8954 19.5219 18.0007 19.2675 18.0007 19.0023V12.0023C18.266 12.0023 18.5203 11.897 18.7078 11.7094C18.8954 11.5219 19.0007 11.2675 19.0007 11.0023C19.0007 10.7371 18.8954 10.4828 18.7078 10.2952C18.5203 10.1077 18.267 10.0023 18.0017 10.0023ZM6.03174 9.24532C6.06288 9.37352 6.11908 9.49428 6.1971 9.60066C6.27512 9.70704 6.37342 9.79693 6.48633 9.86515C6.59924 9.93337 6.72454 9.97858 6.855 9.99817C6.98546 10.0178 7.11851 10.0113 7.24648 9.97928C7.37444 9.94722 7.49481 9.89016 7.60062 9.81138C7.70644 9.7326 7.79563 9.63366 7.86304 9.52027C7.93046 9.40687 7.97477 9.28125 7.99342 9.15065C8.01208 9.02006 8.00471 8.88706 7.97174 8.75932L6.21474 1.72932C6.09183 1.23551 5.80725 0.797004 5.40631 0.483623C5.00537 0.170242 4.51112 0 4.00224 0C3.49335 0 2.9991 0.170242 2.59816 0.483623C2.19722 0.797004 1.91264 1.23551 1.78974 1.72932L0.0317355 8.75932C-0.00123562 8.88706 -0.00860638 9.02006 0.010048 9.15065C0.0287024 9.28125 0.0730131 9.40687 0.140427 9.52027C0.207842 9.63366 0.297027 9.7326 0.402846 9.81138C0.508665 9.89016 0.629025 9.94722 0.756994 9.97928C0.884962 10.0113 1.01801 10.0178 1.14847 9.99817C1.27893 9.97858 1.40423 9.93337 1.51714 9.86515C1.63005 9.79693 1.72835 9.70704 1.80637 9.60066C1.88439 9.49428 1.94059 9.37352 1.97174 9.24532L2.53074 7.00232H5.47074L6.03174 9.24532ZM3.03174 5.00232L3.72874 2.21532C3.74976 2.15994 3.78713 2.11225 3.83589 2.0786C3.88465 2.04495 3.94249 2.02693 4.00174 2.02693C4.06098 2.02693 4.11882 2.04495 4.16758 2.0786C4.21634 2.11225 4.25371 2.15994 4.27474 2.21532L4.97174 5.00232H3.03174ZM11.0017 5.00232H12.0017C12.2669 5.00259 12.5211 5.10803 12.7086 5.29551C12.896 5.48299 13.0015 5.73719 13.0017 6.00232V7.00232C13.0017 7.26754 13.1071 7.52189 13.2946 7.70943C13.4822 7.89697 13.7365 8.00232 14.0017 8.00232C14.267 8.00232 14.5213 7.89697 14.7088 7.70943C14.8964 7.52189 15.0017 7.26754 15.0017 7.00232V6.00232C15.0009 5.20692 14.6846 4.44432 14.1222 3.88188C13.5597 3.31944 12.7971 3.00312 12.0017 3.00232H11.0017C10.7365 3.00232 10.4822 3.10768 10.2946 3.29522C10.1071 3.48275 10.0017 3.73711 10.0017 4.00232C10.0017 4.26754 10.1071 4.52189 10.2946 4.70943C10.4822 4.89697 10.7365 5.00232 11.0017 5.00232ZM7.00174 14.0023H6.00174C5.7366 14.0021 5.4824 13.8966 5.29492 13.7091C5.10744 13.5217 5.002 13.2675 5.00174 13.0023V12.0023C5.00174 11.7371 4.89638 11.4828 4.70884 11.2952C4.52131 11.1077 4.26695 11.0023 4.00174 11.0023C3.73652 11.0023 3.48217 11.1077 3.29463 11.2952C3.10709 11.4828 3.00174 11.7371 3.00174 12.0023V13.0023C3.00253 13.7977 3.31886 14.5603 3.88129 15.1228C4.44373 15.6852 5.20633 16.0015 6.00174 16.0023H7.00174C7.26695 16.0023 7.52131 15.897 7.70884 15.7094C7.89638 15.5219 8.00174 15.2675 8.00174 15.0023C8.00174 14.7371 7.89638 14.4828 7.70884 14.2952C7.52131 14.1077 7.26695 14.0023 7.00174 14.0023Z" fill="#AD2F3B"/>
</svg>
