<svg width="16" height="16" viewBox="0 0 16 16" fill="none" xmlns="http://www.w3.org/2000/svg">
<path d="M15.1588 8.00093H13.4746C13.2513 8.00093 13.0371 8.08521 12.8792 8.23522C12.7213 8.38523 12.6326 8.58869 12.6326 8.80084C12.6326 9.01299 12.7213 9.21644 12.8792 9.36646C13.0371 9.51647 13.2513 9.60074 13.4746 9.60074V11.2006H12.4759C12.576 10.9444 12.6287 10.6738 12.6317 10.4007C12.6317 9.87241 12.4482 9.35894 12.1096 8.93986C11.7711 8.52078 11.2965 8.21953 10.7593 8.08281C10.2222 7.94608 9.65257 7.98154 9.13881 8.18368C8.62505 8.38581 8.19585 8.74333 7.91779 9.20079C7.86162 9.2918 7.82496 9.39246 7.80992 9.49697C7.79487 9.60149 7.80174 9.70781 7.83013 9.8098C7.85851 9.91178 7.90785 10.0074 7.97531 10.0912C8.04277 10.175 8.12701 10.2453 8.22318 10.2981C8.31936 10.3508 8.42556 10.385 8.53569 10.3986C8.64582 10.4122 8.75769 10.4049 8.86486 10.3773C8.97203 10.3497 9.07239 10.3022 9.16016 10.2375C9.24793 10.1729 9.32137 10.0924 9.37626 10.0007C9.45016 9.8791 9.55646 9.77812 9.68447 9.70792C9.81247 9.63771 9.95768 9.60075 10.1055 9.60074C10.3288 9.60074 10.543 9.68502 10.7009 9.83503C10.8588 9.98504 10.9476 10.1885 10.9476 10.4007C10.9476 10.6128 10.8588 10.8163 10.7009 10.9663C10.543 11.1163 10.3288 11.2006 10.1055 11.2006C9.88216 11.2006 9.66797 11.2848 9.51006 11.4348C9.35214 11.5849 9.26342 11.7883 9.26342 12.0005C9.26342 12.2126 9.35214 12.4161 9.51006 12.5661C9.66797 12.7161 9.88216 12.8004 10.1055 12.8004C10.3288 12.8004 10.543 12.8846 10.7009 13.0347C10.8588 13.1847 10.9476 13.3881 10.9476 13.6003C10.9476 13.8124 10.8588 14.0159 10.7009 14.1659C10.543 14.3159 10.3288 14.4002 10.1055 14.4002C9.95768 14.4002 9.81247 14.3632 9.68447 14.293C9.55646 14.2228 9.45016 14.1218 9.37626 14.0002C9.32137 13.9085 9.24793 13.828 9.16016 13.7634C9.07239 13.6988 8.97203 13.6513 8.86486 13.6236C8.75769 13.596 8.64582 13.5888 8.53569 13.6024C8.42556 13.616 8.31936 13.6501 8.22318 13.7029C8.12701 13.7556 8.04277 13.8259 7.97531 13.9097C7.90785 13.9935 7.85851 14.0891 7.83013 14.1911C7.80174 14.2931 7.79487 14.3994 7.80992 14.504C7.82496 14.6085 7.86162 14.7091 7.91779 14.8001C8.19585 15.2576 8.62505 15.6151 9.13881 15.8173C9.65257 16.0194 10.2222 16.0548 10.7593 15.9181C11.2965 15.7814 11.7711 15.4801 12.1096 15.0611C12.4482 14.642 12.6317 14.1285 12.6317 13.6003C12.6287 13.3271 12.576 13.0565 12.4759 12.8004H13.4738V15.2001C13.4738 15.4122 13.5625 15.6157 13.7204 15.7657C13.8783 15.9157 14.0925 16 14.3159 16C14.5392 16 14.7534 15.9157 14.9113 15.7657C15.0692 15.6157 15.1579 15.4122 15.1579 15.2001V9.60074C15.3813 9.60074 15.5954 9.51647 15.7534 9.36646C15.9113 9.21644 16 9.01299 16 8.80084C16 8.58869 15.9113 8.38523 15.7534 8.23522C15.5954 8.08521 15.3821 8.00093 15.1588 8.00093ZM5.07916 7.3954C5.10538 7.49794 5.15271 7.59454 5.21841 7.67964C5.28411 7.76473 5.36688 7.83663 5.46196 7.8912C5.55704 7.94578 5.66255 7.98194 5.77241 7.9976C5.88227 8.01327 5.9943 8.00814 6.10206 7.98249C6.20982 7.95685 6.31117 7.91121 6.40028 7.84819C6.48938 7.78518 6.56449 7.70603 6.62125 7.61533C6.67802 7.52462 6.71533 7.42414 6.73104 7.31967C6.74675 7.21521 6.74054 7.10882 6.71278 7.00664L5.23326 1.3833C5.12976 0.988292 4.89013 0.637529 4.55251 0.386853C4.21489 0.136178 3.79869 0 3.37017 0C2.94166 0 2.52546 0.136178 2.18784 0.386853C1.85022 0.637529 1.61058 0.988292 1.50709 1.3833L0.0267236 7.00664C-0.00104048 7.10882 -0.0072472 7.21521 0.00846114 7.31967C0.0241695 7.42414 0.0614823 7.52462 0.11825 7.61533C0.175018 7.70603 0.250119 7.78518 0.339226 7.84819C0.428333 7.91121 0.529685 7.95685 0.637444 7.98249C0.745202 8.00814 0.857238 8.01327 0.967095 7.9976C1.07695 7.98194 1.18246 7.94578 1.27754 7.8912C1.37262 7.83663 1.4554 7.76473 1.5211 7.67964C1.58679 7.59454 1.63412 7.49794 1.66034 7.3954L2.13106 5.60121H4.60676L5.07916 7.3954ZM2.55294 4.00139L3.13987 1.77205C3.15757 1.72775 3.18904 1.6896 3.2301 1.66269C3.27116 1.63577 3.31986 1.62136 3.36975 1.62136C3.41964 1.62136 3.46835 1.63577 3.50941 1.66269C3.55047 1.6896 3.58194 1.72775 3.59964 1.77205L4.18656 4.00139H2.55294ZM9.26426 4.00139H10.1063C10.3296 4.00161 10.5437 4.08595 10.7015 4.23592C10.8594 4.38588 10.9482 4.58922 10.9484 4.8013V5.60121C10.9484 5.81336 11.0371 6.01682 11.195 6.16683C11.353 6.31684 11.5671 6.40112 11.7905 6.40112C12.0138 6.40112 12.228 6.31684 12.3859 6.16683C12.5438 6.01682 12.6326 5.81336 12.6326 5.60121V4.8013C12.6319 4.16505 12.3655 3.55504 11.8919 3.10514C11.4183 2.65525 10.7761 2.40222 10.1063 2.40158H9.26426C9.04093 2.40158 8.82674 2.48586 8.66883 2.63587C8.51091 2.78588 8.42219 2.98934 8.42219 3.20149C8.42219 3.41364 8.51091 3.61709 8.66883 3.76711C8.82674 3.91712 9.04093 4.00139 9.26426 4.00139ZM5.89597 11.2006H5.0539C4.83063 11.2003 4.61658 11.116 4.45871 10.966C4.30084 10.8161 4.21205 10.6127 4.21182 10.4007V9.60074C4.21182 9.38859 4.12311 9.18514 3.96519 9.03512C3.80727 8.88511 3.59308 8.80084 3.36975 8.80084C3.14642 8.80084 2.93224 8.88511 2.77432 9.03512C2.6164 9.18514 2.52768 9.38859 2.52768 9.60074V10.4007C2.52835 11.0369 2.79472 11.6469 3.26833 12.0968C3.74194 12.5467 4.38411 12.7997 5.0539 12.8004H5.89597C6.1193 12.8004 6.33349 12.7161 6.4914 12.5661C6.64932 12.4161 6.73804 12.2126 6.73804 12.0005C6.73804 11.7883 6.64932 11.5849 6.4914 11.4348C6.33349 11.2848 6.1193 11.2006 5.89597 11.2006Z" fill="#AD2F3B"/>
</svg>
