<svg width="16" height="16" viewBox="0 0 16 16" fill="none" xmlns="http://www.w3.org/2000/svg">
<path d="M7.01591 15.9619C5.58903 15.7767 4.12015 15.1639 3.05023 14.3064C0.641431 12.382 -0.451979 9.34185 0.172969 6.32268C0.440947 5.0191 1.13889 3.64743 2.03232 2.65923C2.69046 1.91758 3.48414 1.30876 4.37063 0.865551C5.54753 0.268326 6.67244 0 8.00033 0C8.95325 0 9.71919 0.125152 10.5966 0.425016C11.7493 0.820919 12.7965 1.4751 13.6585 2.33771C14.5204 3.20031 15.1742 4.24856 15.5702 5.40256C16.0392 6.77923 16.1247 8.24451 15.8252 9.69678C15.5857 10.8442 14.9683 12.1347 14.2083 13.0679C13.8958 13.4538 13.1769 14.1422 12.7994 14.421C11.6702 15.2608 10.3421 15.7918 8.94575 15.9619C8.53428 16.0139 7.41388 16.0114 7.01591 15.9619ZM9.19573 15.2921C11.1447 14.965 12.8841 13.8761 14.0313 12.2649C15.3827 10.3641 15.7447 7.81399 14.9818 5.59029C14.8023 5.06866 14.3568 4.1981 14.0313 3.73904C13.6694 3.22542 12.7734 2.32582 12.258 1.96338C11.758 1.60895 10.9066 1.17843 10.3256 0.9882C9.27697 0.639346 8.16342 0.530881 7.06726 0.670819C5.97111 0.810756 4.92036 1.19552 3.99266 1.79668C3.11981 2.37079 2.3737 3.11787 1.80034 3.99185C1.20011 4.92025 0.815916 5.97186 0.676159 7.06893C0.536401 8.166 0.644649 9.28049 0.992902 10.33C1.18539 10.9113 1.61535 11.7668 1.96682 12.2674C2.33129 12.781 3.22722 13.6806 3.74018 14.0431C4.20114 14.3664 5.06807 14.812 5.58903 14.9947C6.74857 15.3892 7.98736 15.4913 9.19573 15.2921ZM6.42496 12.6063C6.05116 12.5499 5.69255 12.4186 5.37054 12.2203C5.08157 12.0351 2.89925 9.89452 2.79275 9.69377C2.67026 9.46449 2.88375 9.04699 3.18872 8.91933L3.33171 8.85926L2.89175 8.41071C2.64977 8.16291 2.42028 7.89959 2.38379 7.8265C2.2978 7.6598 2.2953 7.30237 2.37579 7.14318C2.40979 7.0781 2.49028 6.97898 2.55277 6.92391C2.65977 6.8353 2.66976 6.80376 2.65977 6.57949C2.64677 6.38125 2.66477 6.30315 2.75076 6.15447C2.87575 5.94071 3.13373 5.79704 3.38621 5.79454C3.52669 5.79454 3.56319 5.77652 3.62319 5.67189C3.77967 5.39806 4.22714 5.29893 4.56861 5.46614L4.75359 5.55475L4.84459 5.46614C4.96958 5.3515 5.21956 5.24988 5.38354 5.24988C5.71151 5.24988 6.17498 5.62783 6.17498 5.89366C6.17498 6.21154 5.886 6.26661 5.59952 6.00329C5.40954 5.82608 5.31305 5.80755 5.23505 5.9327C5.19606 5.99278 5.28955 6.10491 5.8495 6.6706C6.40946 7.23379 6.51095 7.35393 6.51095 7.46056C6.50652 7.54229 6.47177 7.61943 6.41351 7.67684C6.35524 7.73426 6.27766 7.76781 6.19598 7.77094C6.09448 7.77094 5.928 7.62476 5.15956 6.85833C4.37562 6.07588 4.23264 5.95073 4.17014 5.99028C4.00066 6.09741 4.05815 6.1755 4.97458 7.09562C5.47203 7.59623 5.881 8.03926 5.881 8.08131C5.881 8.16742 5.80301 8.32661 5.73801 8.36816C5.6847 8.39161 5.62669 8.4024 5.56853 8.3997C5.46154 8.4022 5.29755 8.25352 4.42562 7.38297C3.55069 6.51191 3.39421 6.37124 3.33171 6.41028C3.15972 6.51992 3.21722 6.59551 4.21464 7.59923C4.75909 8.14439 5.21456 8.63198 5.22755 8.68405C5.25605 8.77816 5.19356 8.94236 5.11056 8.99943C5.05549 9.02288 4.99586 9.03366 4.93608 9.03097C4.82909 9.03097 4.6941 8.91383 3.97266 8.19145C3.27721 7.4951 3.11573 7.35193 3.02724 7.35994C2.77726 7.38847 2.86575 7.50061 4.15714 8.79668C5.27705 9.92055 5.42004 10.0797 5.42004 10.1969C5.42117 10.2399 5.41151 10.2825 5.39194 10.3208C5.37238 10.3591 5.34353 10.3919 5.30805 10.4161C5.10756 10.5753 5.02957 10.5388 4.52411 10.0487C4.26613 9.8009 4.00066 9.56111 3.93016 9.51656C3.80267 9.43846 3.4797 9.40442 3.4197 9.467C3.3987 9.48502 3.87517 9.98863 4.47712 10.5854C5.47953 11.5786 5.59402 11.6807 5.8885 11.8214C6.15978 11.9566 6.45855 12.0274 6.76159 12.0283C7.06464 12.0292 7.36381 11.9601 7.63586 11.8264C8.47679 11.4249 8.94325 10.4497 8.71377 9.56562C8.59928 9.12508 8.45579 8.91383 7.87784 8.3166C7.21139 7.63327 7.0574 7.44554 6.89342 7.11714C6.71093 6.7497 6.63294 6.39226 6.63294 5.94622C6.63294 5.46364 6.68244 5.24487 6.89592 4.79382C7.0989 4.3638 7.52337 3.91275 7.94283 3.68047C8.76577 3.22141 9.84918 3.26046 10.6351 3.77458C10.7916 3.87621 11.3566 4.40835 12.0595 5.11471C13.1039 6.16298 13.2234 6.29865 13.2234 6.41829C13.2234 6.70264 12.9914 7.01802 12.7339 7.0831C12.6374 7.10913 12.6559 7.13517 13.0934 7.58121C13.3484 7.83952 13.5854 8.11836 13.6219 8.20446C13.7444 8.49932 13.6894 8.78567 13.4654 9.02045C13.3509 9.1406 13.3354 9.18215 13.3324 9.42194C13.3299 9.6332 13.3064 9.72181 13.2229 9.84195C13.157 9.93969 13.0687 10.0203 12.9653 10.0769C12.862 10.1336 12.7467 10.1648 12.6289 10.1678C12.4675 10.1678 12.4365 10.1834 12.3555 10.306C12.173 10.5879 11.699 10.6865 11.392 10.5043L11.2386 10.4131L11.1291 10.5203C10.8871 10.7526 10.4961 10.7836 10.1996 10.5934C9.96017 10.4422 9.78318 10.2309 9.78318 10.0978C9.78318 9.98062 9.95267 9.78739 10.0567 9.78739C10.1557 9.78739 10.2886 9.86548 10.4396 10.0067C10.5906 10.1498 10.7211 10.1498 10.7416 10.0041C10.7521 9.92605 10.6271 9.77737 10.1217 9.26876C9.5902 8.7316 9.48871 8.60895 9.48871 8.50483C9.48752 8.4467 9.49823 8.38894 9.5202 8.33512C9.5777 8.24902 9.73919 8.18894 9.83768 8.21498C9.88967 8.22799 10.3296 8.63499 10.8116 9.11707C11.2961 9.60216 11.7205 9.99814 11.7595 9.99814C11.8665 9.99814 11.9365 9.89101 11.887 9.7999C11.8635 9.75835 11.4545 9.33834 10.9806 8.86376C10.2386 8.12337 10.1187 7.9852 10.1187 7.87556C10.1162 7.81653 10.127 7.7577 10.1502 7.70336C10.1946 7.63828 10.3506 7.56018 10.4391 7.56018C10.4781 7.56018 10.9676 8.01623 11.5275 8.57441C12.5535 9.59665 12.6289 9.65372 12.7359 9.48452C12.7749 9.42194 12.6344 9.26275 11.7645 8.38919C10.8661 7.48709 10.7466 7.35143 10.7466 7.23429C10.7466 7.15369 10.7831 7.07009 10.8406 7.01802C11.0306 6.8383 11.0881 6.87485 12.0125 7.79497C12.8874 8.66853 12.9654 8.7256 13.0724 8.55889C13.1114 8.49632 12.9344 8.30358 11.8485 7.21326C10.6661 6.02432 10.5806 5.9277 10.5806 5.78953C10.5806 5.58078 10.7006 5.48166 10.9321 5.49768C10.9736 5.50018 11.2236 5.71144 11.4815 5.96424C11.742 6.21705 12.023 6.45434 12.1065 6.49088C12.2705 6.55847 12.4605 6.56898 12.5415 6.51691C12.6194 6.46735 10.4581 4.33727 10.1771 4.18859C9.93623 4.05839 9.67126 3.97894 9.39853 3.95512C9.1258 3.9313 8.85108 3.96363 8.5913 4.0501C8.33151 4.13657 8.09215 4.27537 7.88794 4.45794C7.68373 4.64051 7.51899 4.863 7.40388 5.11171C7.26839 5.40106 7.25039 5.48716 7.23189 5.86012C7.21639 6.21204 7.22939 6.32168 7.30488 6.54595C7.44037 6.94493 7.55736 7.10913 8.16431 7.72989C8.82076 8.4027 8.94575 8.55639 9.11224 8.91633C9.5812 9.91754 9.38321 11.0754 8.60978 11.8469C8.02133 12.4386 7.21939 12.7154 6.42496 12.6063Z" fill="#AD2F3B"/>
</svg>
