<svg width="16" height="18" viewBox="0 0 16 18" fill="none" xmlns="http://www.w3.org/2000/svg">
<path d="M11.636 0.321429C11.636 0.227679 11.6701 0.15067 11.7382 0.0904018C11.8064 0.0301339 11.8936 0 11.9996 0H15.2727C15.4696 0 15.6401 0.0636161 15.7841 0.190848C15.928 0.31808 16 0.46875 16 0.642857V3.53571C16 3.62946 15.9659 3.70647 15.8977 3.76674C15.8295 3.82701 15.7424 3.85714 15.6363 3.85714H14.909C14.8029 3.85714 14.7158 3.82701 14.6476 3.76674C14.5794 3.70647 14.5453 3.62946 14.5453 3.53571V2.18973L11.6587 4.75112C12.6133 5.80915 13.0906 7.01116 13.0906 8.35714C13.0906 9.83705 12.5319 11.1244 11.4143 12.2193C10.2968 13.3142 8.91601 13.942 7.27192 14.1027V15.4286H8.36293C8.469 15.4286 8.55613 15.4587 8.62432 15.519C8.69251 15.5792 8.7266 15.6562 8.7266 15.75V16.3929C8.7266 16.4866 8.69251 16.5636 8.62432 16.6239C8.55613 16.6842 8.469 16.7143 8.36293 16.7143H7.27192V17.6786C7.27192 17.7723 7.23783 17.8493 7.16964 17.9096C7.10145 17.9699 7.01432 18 6.90825 18H6.18091C6.07484 18 5.98771 17.9699 5.91952 17.9096C5.85134 17.8493 5.81724 17.7723 5.81724 17.6786V16.7143H4.72623C4.62016 16.7143 4.53303 16.6842 4.46484 16.6239C4.39666 16.5636 4.36256 16.4866 4.36256 16.3929V15.75C4.36256 15.6562 4.39666 15.5792 4.46484 15.519C4.53303 15.4587 4.62016 15.4286 4.72623 15.4286H5.81724V14.1027C4.68835 13.9955 3.66363 13.6507 2.7431 13.0681C1.82256 12.4855 1.11605 11.7372 0.623582 10.8231C0.131112 9.90904 -0.069664 8.93304 0.0212534 7.89509C0.142477 6.52902 0.748593 5.34542 1.8396 4.34431C2.93061 3.34319 4.24513 2.76562 5.78315 2.61161C6.67717 2.51786 7.54089 2.58147 8.3743 2.80246C9.20771 3.02344 9.95778 3.3683 10.6245 3.83705L13.5225 1.28571H11.9996C11.8936 1.28571 11.8064 1.25558 11.7382 1.19531C11.6701 1.13504 11.636 1.05804 11.636 0.964286V0.321429ZM6.54458 12.8571C7.94623 12.8571 9.1452 12.4169 10.1415 11.5363C11.1378 10.6557 11.636 9.59598 11.636 8.35714C11.636 7.1183 11.1378 6.05859 10.1415 5.17801C9.1452 4.29743 7.94623 3.85714 6.54458 3.85714C5.14294 3.85714 3.94396 4.29743 2.94766 5.17801C1.95136 6.05859 1.4532 7.1183 1.4532 8.35714C1.4532 9.59598 1.95136 10.6557 2.94766 11.5363C3.94396 12.4169 5.14294 12.8571 6.54458 12.8571Z" fill="black"/>
</svg>
