<svg width="16" height="16" viewBox="0 0 16 16" fill="none" xmlns="http://www.w3.org/2000/svg">
<path d="M7.165 2.99937H9.67001L12.4172 0.246735C12.4948 0.168553 12.5871 0.106498 12.6889 0.0641506C12.7907 0.0218028 12.8998 0 13.01 0C13.1203 0 13.2294 0.0218028 13.3311 0.0641506C13.4329 0.106498 13.5253 0.168553 13.6029 0.246735L15.7572 2.40714C15.9127 2.56342 16 2.77484 16 2.9952C16 3.21557 15.9127 3.42698 15.7572 3.58327L13.845 5.50177H7.165V7.17004C7.165 7.39126 7.07702 7.60343 6.92043 7.75986C6.76383 7.91629 6.55145 8.00417 6.32999 8.00417C6.10853 8.00417 5.89615 7.91629 5.73955 7.75986C5.58296 7.60343 5.49499 7.39126 5.49499 7.17004V4.66764C5.49499 4.22519 5.67093 3.80086 5.98412 3.488C6.29731 3.17514 6.72208 2.99937 7.165 2.99937ZM2.15497 7.17004V10.5066L0.242813 12.4167C0.0872928 12.573 0 12.7844 0 13.0048C0 13.2252 0.0872928 13.4366 0.242813 13.5929L2.39712 15.7533C2.47475 15.8314 2.5671 15.8935 2.66885 15.9359C2.77061 15.9782 2.87975 16 2.98998 16C3.10021 16 3.20935 15.9782 3.3111 15.9359C3.41285 15.8935 3.5052 15.8314 3.58283 15.7533L7.165 12.1748H10.505C10.7265 12.1748 10.9389 12.087 11.0954 11.9305C11.252 11.7741 11.34 11.5619 11.34 11.3407V10.5066H12.175C12.3965 10.5066 12.6089 10.4187 12.7655 10.2623C12.922 10.1058 13.01 9.89366 13.01 9.67244V8.8383H13.845C14.0665 8.8383 14.2789 8.75042 14.4355 8.59399C14.5921 8.43756 14.68 8.2254 14.68 8.00417V7.17004H8.835V8.00417C8.835 8.44662 8.65906 8.87095 8.34587 9.18381C8.03268 9.49667 7.60791 9.67244 7.165 9.67244H5.49499C5.05207 9.67244 4.6273 9.49667 4.31411 9.18381C4.00093 8.87095 3.82498 8.44662 3.82498 8.00417V5.50177L2.15497 7.17004Z" fill="#AD2F3B"/>
</svg>
