<svg width="18" height="18" viewBox="0 0 18 18" fill="none" xmlns="http://www.w3.org/2000/svg">
<path d="M8.064 0C6.87583 0 5.73632 0.46937 4.89616 1.30485C4.056 2.14034 3.584 3.2735 3.584 4.45505C3.584 5.6366 4.056 6.76976 4.89616 7.60525C5.73632 8.44073 6.87583 8.9101 8.064 8.9101C9.25217 8.9101 10.3917 8.44073 11.2318 7.60525C12.072 6.76976 12.544 5.6366 12.544 4.45505C12.544 3.2735 12.072 2.14034 11.2318 1.30485C10.3917 0.46937 9.25217 0 8.064 0ZM8.17421 11.1822C8.26089 11.0432 8.30742 10.8831 8.3087 10.7196C8.30998 10.556 8.26597 10.3953 8.18148 10.2549C8.097 10.1146 7.9753 10.0001 7.82972 9.92399C7.68415 9.84787 7.52031 9.81306 7.35616 9.82339C5.376 9.94813 3.59744 10.5879 2.29286 11.4388C1.64058 11.8647 1.08506 12.3574 0.683648 12.8911C0.28672 13.4159 0 14.0379 0 14.7017C0 16.0694 1.14509 16.792 2.23552 17.1635C3.3824 17.5547 4.91456 17.732 6.56499 17.7935C6.70773 17.7989 6.8497 17.7703 6.97907 17.7101C7.10844 17.6499 7.22145 17.5598 7.30869 17.4473C7.39593 17.3348 7.45486 17.2032 7.48058 17.0635C7.50629 16.9238 7.49804 16.78 7.45651 16.6441C7.26467 16.0143 7.16745 15.3597 7.168 14.7017C7.1657 13.458 7.51431 12.2386 8.17421 11.1822ZM10.313 11.8308C11.0817 11.1563 12.1802 10.5923 13.44 10.5923C14.6998 10.5923 15.7983 11.1563 16.567 11.8308C16.9396 12.1538 17.2591 12.5326 17.5141 12.9535C17.7399 13.334 17.92 13.7911 17.92 14.2562C17.92 14.7222 17.7408 15.1784 17.5141 15.5588C17.2591 15.9798 16.9396 16.3586 16.567 16.6815C15.7983 17.356 14.6998 17.92 13.44 17.92C12.1802 17.92 11.0817 17.356 10.313 16.6815C9.94045 16.3586 9.62091 15.9798 9.36589 15.5588C9.1392 15.1784 8.96 14.7213 8.96 14.2562C8.96 13.7902 9.1392 13.334 9.36589 12.9535C9.62091 12.5326 9.94045 12.1538 10.313 11.8308ZM14.3369 14.2562C14.3348 14.2205 14.2957 14.199 14.2626 14.2125C14.1662 14.2518 14.0607 14.2655 13.9566 14.2516C13.8267 14.2343 13.7061 14.175 13.6134 14.0828C13.5207 13.9907 13.4611 13.8707 13.4437 13.7415C13.4297 13.6376 13.4436 13.5323 13.4834 13.4362C13.4967 13.4042 13.4755 13.3664 13.4409 13.3652C13.2637 13.3652 13.0905 13.4174 12.9431 13.5153C12.7958 13.6132 12.6809 13.7524 12.6131 13.9152C12.5453 14.078 12.5275 14.2572 12.5621 14.43C12.5967 14.6028 12.682 14.7616 12.8073 14.8862C12.9326 15.0108 13.0923 15.0957 13.2661 15.1301C13.4399 15.1644 13.6201 15.1468 13.7838 15.0794C13.9475 15.0119 14.0874 14.8977 14.1859 14.7512C14.2843 14.6047 14.3369 14.4324 14.3369 14.2562Z" fill="#AD2F3B"/>
</svg>
