<svg width="17" height="17" viewBox="0 0 17 17" fill="none" xmlns="http://www.w3.org/2000/svg">
<path d="M15.8409 14.3653L16.3021 14.8542L15.84 14.3653H15.8409ZM4.85211 12.3841L5.31237 11.8952L4.85123 12.3841H4.85211ZM1.25542 2.65066L0.795154 2.16271L1.25629 2.65158L1.25542 2.65066ZM11.6619 11.6159L12.0603 11.1996L11.1372 10.2218L10.7414 10.6381L11.6619 11.6159ZM13.3932 11.025L15.059 11.9798L15.6823 10.7686L14.0173 9.81474L13.3932 11.025ZM15.3789 13.8765L14.1411 15.1749L15.0625 16.1518L16.3003 14.8542L15.3789 13.8765ZM13.3862 15.5921C12.1222 15.7171 8.85327 15.6059 5.31237 11.8952L4.3901 12.8721C8.25353 16.9218 11.9313 17.1203 13.5082 16.965L13.3853 15.5921H13.3862ZM5.31237 11.8952C1.93797 8.3573 1.37833 5.38268 1.30859 4.09157L0.00276631 4.16968C0.0899376 5.79437 0.78295 9.09154 4.3901 12.8721L5.31237 11.8952ZM6.51098 6.21616L6.76116 5.95335L5.84063 4.97651L5.59045 5.23841L6.51185 6.21524L6.51098 6.21616ZM6.95991 2.61299L5.86155 1.06549L4.81462 1.89254L5.91298 3.43912L6.95991 2.61299ZM2.16461 0.728236L0.796025 2.16179L1.7183 3.13954L3.08602 1.70599L2.16461 0.728236ZM6.05071 5.72729C5.5887 5.23841 5.5887 5.23841 5.5887 5.24025H5.58696L5.58435 5.24392C5.54319 5.2882 5.50612 5.33651 5.47364 5.3882C5.42657 5.46171 5.37513 5.5582 5.33155 5.68042C5.2254 5.99591 5.19896 6.33509 5.25484 6.66461C5.37165 7.45949 5.89119 8.50984 7.22142 9.9048L8.14369 8.92704C6.89802 7.62215 6.60163 6.82818 6.54672 6.45325C6.52057 6.27498 6.54759 6.18676 6.55543 6.16654C6.55979 6.15368 6.56154 6.15276 6.55543 6.16103C6.54775 6.17377 6.53899 6.18576 6.52928 6.19687L6.52056 6.20605C6.51775 6.20891 6.51484 6.21167 6.51185 6.21432L6.04984 5.72729H6.05071ZM7.22142 9.9048C8.55253 11.2998 9.55413 11.8438 10.309 11.9651C10.6952 12.0276 11.0064 11.9779 11.2426 11.8851C11.3747 11.8336 11.4983 11.7604 11.6088 11.6683C11.6238 11.655 11.6383 11.6412 11.6523 11.6269L11.6584 11.6214L11.6611 11.6186L11.6619 11.6168C11.6619 11.6168 11.6628 11.6159 11.2017 11.127C10.7397 10.6381 10.7423 10.6372 10.7423 10.6372L10.744 10.6354L10.7458 10.6335L10.751 10.6289L10.7597 10.6197C10.7702 10.6098 10.7812 10.6006 10.7928 10.5922C10.8015 10.5857 10.7989 10.5885 10.7867 10.594C10.7649 10.6023 10.6795 10.6308 10.5078 10.6032C10.1469 10.5444 9.3885 10.2319 8.14369 8.92704L7.22142 9.9048ZM5.86155 1.06457C4.9724 -0.185193 3.22549 -0.383685 2.16461 0.728236L3.08602 1.70599C3.54977 1.21987 4.37266 1.27041 4.81462 1.89254L5.86068 1.06457H5.86155ZM1.30946 4.09249C1.29203 3.77453 1.43063 3.44187 1.7183 3.14046L0.795154 2.16271C0.327044 2.65342 -0.0416911 3.34814 0.00276631 4.16968L1.30946 4.09249ZM14.1411 15.1749C13.9022 15.4267 13.6442 15.5682 13.387 15.5931L13.5082 16.965C14.1489 16.9016 14.6728 16.5616 15.0634 16.1527L14.1411 15.1749ZM6.76116 5.95335C7.61979 5.0537 7.68343 3.6321 6.96078 2.61391L5.91385 3.44004C6.26515 3.93535 6.21285 4.58504 5.83976 4.97743L6.76116 5.95335ZM15.0599 11.9807C15.7721 12.3887 15.8828 13.3499 15.3798 13.8774L16.3021 14.8542C17.4702 13.6293 17.1101 11.5865 15.6831 10.7695L15.0599 11.9807ZM12.0603 11.2005C12.395 10.8495 12.9338 10.7631 13.394 11.0259L14.0182 9.81566C13.0732 9.27349 11.9016 9.42327 11.138 10.2228L12.0603 11.2005Z" fill="white"/>
</svg>
