<svg width="16" height="16" viewBox="0 0 16 16" fill="none" xmlns="http://www.w3.org/2000/svg">
<path id="Vector" d="M5.82072 16V14.8575H10.1847V16H5.82072ZM16 6.28844C16.0009 7.21532 15.7398 8.1308 15.2356 8.96876C14.7314 9.80671 13.9966 10.5462 13.0844 11.1339C12.2133 11.6984 11.6375 12.497 11.6375 13.3847V13.7149H4.36654V13.459C4.36654 12.6021 3.92593 11.7566 3.0665 11.2276C1.90593 10.5144 1.01905 9.56283 0.503972 8.4782C-0.0111081 7.39357 -0.134321 6.21814 0.147961 5.08192C0.723817 2.64603 3.19011 0.652308 6.27734 0.146165C7.44645 -0.0553752 8.65819 -0.0484119 9.82342 0.166542C10.9886 0.381497 12.0777 0.798973 13.0105 1.38826C13.9433 1.97754 14.696 2.72364 15.2134 3.57165C15.7308 4.41967 15.9995 5.34803 16 6.28844ZM3.63945 6.85971C3.63945 4.49809 5.36411 2.86083 8.002 2.86083V1.71829C4.49306 1.71829 2.18527 3.90968 2.18527 6.85971H3.63945Z" fill="black"/>
</svg>
